<svg xmlns:dc="http://purl.org/dc/elements/1.1/" xmlns:cc="http://creativecommons.org/ns#" xmlns:rdf="http://www.w3.org/1999/02/22-rdf-syntax-ns#" xmlns:svg="http://www.w3.org/2000/svg" xmlns="http://www.w3.org/2000/svg" xmlns:xlink="http://www.w3.org/1999/xlink" id="svg408913" viewBox="0 0 1024 768" height="768px" width="1024px" version="1.1">
  <metadata id="metadata408919">
    <rdf:rdf>
      <cc:work rdf:about="">
        <dc:format>image/svg+xml</dc:format>
        <dc:type rdf:resource="http://purl.org/dc/dcmitype/StillImage"></dc:type>
      </cc:work>
    </rdf:rdf>
  </metadata>
  <defs id="defs408917"></defs>
  <linearGradient spreadMethod="pad" y2="30%" x2="-10%" y1="120%" x1="30%" id="3d_gradient2-logo-d34ade73-1024-4407-9251-3c9ee2195099">
    <stop id="stop408894" stop-opacity="1" stop-color="#ffffff" offset="0%"></stop>
    <stop id="stop408896" stop-opacity="1" stop-color="#000000" offset="100%"></stop>
  </linearGradient>
  <linearGradient gradientTransform="rotate(-30)" spreadMethod="pad" y2="30%" x2="-10%" y1="120%" x1="30%" id="3d_gradient3-logo-d34ade73-1024-4407-9251-3c9ee2195099">
    <stop id="stop408899" stop-opacity="1" stop-color="#ffffff" offset="0%"></stop>
    <stop id="stop408901" stop-opacity="1" stop-color="#cccccc" offset="50%"></stop>
    <stop id="stop408903" stop-opacity="1" stop-color="#000000" offset="100%"></stop>
  </linearGradient>
  <g id="logo-group">
    <image xlink:href="" id="container" x="272" y="144" width="480" height="480" style="display: none;" transform="translate(0 0)"></image>
    <g id="logo-center" transform="translate(1.1368683772161603e-13 0)">
      <image xlink:href="" id="icon_container" style="display: none;" x="0" y="0"></image>
      <g id="slogan" style="font-style:oblique;font-weight:100;font-size:32px;line-height:1;font-family:Overpass;font-variant-ligatures:none;text-align:center;text-anchor:middle" transform="translate(0 0)"></g>
      <g id="title" style="font-style:normal;font-weight:700;font-size:72px;line-height:1;font-family:'Brandmark1 Bold';font-variant-ligatures:normal;text-align:center;text-anchor:middle" transform="translate(0 0)">
        <path id="path408922" style="font-style:normal;font-weight:700;font-size:72px;line-height:1;font-family:'Brandmark1 Bold';font-variant-ligatures:normal;text-align:center;text-anchor:middle" d="m 288.72462,-5.76 v 8.28 h 33.552 l 7.92,-10.728 h -26.28 l 25.272,-37.152 v -8.28 h -31.896 l -7.91999,10.728 h 24.40799 z" stroke-width="0" stroke-linejoin="miter" stroke-miterlimit="2" fill="#322210" stroke="#322210" transform="translate(0 296.64171999999996) translate(307.68969834999996 54.8276) scale(0.91) translate(-288.72462 53.64)"></path>
        <path id="path408924" style="font-style:normal;font-weight:700;font-size:72px;line-height:1;font-family:'Brandmark1 Bold';font-variant-ligatures:normal;text-align:center;text-anchor:middle" d="m 349.766,2.736 c 2.88,0 5.616,-0.576 8.208,-1.656 2.448,-1.152 4.68,-2.664 6.552,-4.68 l -7.56,-7.2 c -1.872,2.016 -4.464,3.096 -7.2,3.096 -3.528,0 -6.552,-1.8 -8.352,-4.608 h 28.656 v -5.184 c 0,-5.472 -2.088,-10.512 -5.976,-14.4 -3.816,-3.816 -8.928,-5.904 -14.328,-5.904 -5.4,0 -10.512,2.088 -14.328,5.904 -3.816,3.888 -5.976,8.928 -5.976,14.4 0,5.4 2.16,10.512 5.976,14.328 3.816,3.816 8.928,5.904 14.328,5.904 z m 8.352,-25.488 h -16.704 c 1.8,-2.736 4.824,-4.608 8.352,-4.608 3.528,0 6.624,1.872 8.352,4.608 z" stroke-width="0" stroke-linejoin="miter" stroke-miterlimit="2" fill="#322210" stroke="#322210" transform="translate(0 296.64171999999996) translate(344.76071414999996 69.242) scale(0.91) translate(-329.462 37.8)"></path>
        <path id="path408926" style="font-style:normal;font-weight:700;font-size:72px;line-height:1;font-family:'Brandmark1 Bold';font-variant-ligatures:normal;text-align:center;text-anchor:middle" d="M 372.49887,-15.192 V 2.52 h 10.8 v -17.712 c 0,-6.984 5.688,-12.6 12.6,-12.6 v -10.8 c -3.16799,0 -6.19199,0.576 -9.072,1.8 -2.808,1.224 -5.328,2.88 -7.416,5.04 -2.16,2.16 -3.888,4.68 -5.04,7.416 -1.22399,2.88 -1.872,5.976 -1.872,9.144 z" stroke-width="0" stroke-linejoin="miter" stroke-miterlimit="2" fill="#322210" stroke="#322210" transform="translate(0 296.64171999999996) translate(383.92426585 68.52127999999999) scale(0.91) translate(-372.49887 38.592)"></path>
        <path id="path408928" style="font-style:normal;font-weight:700;font-size:72px;line-height:1;font-family:'Brandmark1 Bold';font-variant-ligatures:normal;text-align:center;text-anchor:middle" d="m 428.795,-32.184 c -3.816,-3.816 -8.856,-5.904 -14.256,-5.904 -5.4,0 -10.44,2.088 -14.256,5.904 -3.816,3.816 -5.904,8.928 -5.904,14.256 0,5.4 2.088,10.512 5.904,14.328 3.816,3.816 8.856,5.904 14.256,5.904 3.168,0 6.264,-0.72 9.072,-2.16 -1.152,3.96 -4.752,6.84 -9.072,6.84 -2.448,0 -4.68,-0.864 -6.48,-2.52 l -7.416,7.776 c 3.744,3.6 8.712,5.616 13.896,5.616 5.4,0 10.44,-2.16 14.256,-5.976 3.816,-3.744 5.904,-8.856 5.904,-14.256 v -15.552 c 0,-5.328 -2.088,-10.44 -5.904,-14.256 z m -14.256,23.688 c -5.184,0 -9.36,-4.248 -9.36,-9.432 0,-5.112 4.176,-9.36 9.36,-9.36 5.184,0 9.432,4.176 9.432,9.36 -0.072,5.184 -4.248,9.432 -9.432,9.432 z" stroke-width="0" stroke-linejoin="miter" stroke-miterlimit="2" fill="#322210" stroke="#322210" transform="translate(0 296.64171999999996) translate(403.83518415 68.97991999999999) scale(0.91) translate(-394.379 38.088)"></path>
        <path id="path408930" style="font-style:normal;font-weight:700;font-size:72px;line-height:1;font-family:'Brandmark1 Bold';font-variant-ligatures:normal;text-align:center;text-anchor:middle" d="M 484.92687,-29.808 V 2.52 h 11.30401 v -56.16 h -10.22401 l -17.424,30.6 -17.42399,-30.6 H 440.86287 V 2.52 h 11.376 v -32.256 l 12.744,21.96 h 7.12801 z" stroke-width="0" stroke-linejoin="miter" stroke-miterlimit="2" fill="#218bde" stroke="#218bde" transform="translate(0 296.64171999999996) translate(446.13550584999996 54.8276) scale(0.91) translate(-440.86287 53.64)"></path>
        <path id="path408932" style="font-style:normal;font-weight:700;font-size:72px;line-height:1;font-family:'Brandmark1 Bold';font-variant-ligatures:normal;text-align:center;text-anchor:middle" d="m 541.23087,-38.016 h -10.79999 v 2.232 c -2.808,-1.44 -5.976,-2.232 -9.21601,-2.232 -2.80799,0 -5.47199,0.576 -7.99199,1.656 -2.44801,1.008 -4.68001,2.52 -6.552,4.392 -1.87201,1.872 -3.38401,4.032 -4.392,6.48 -1.08001,2.592 -1.584,5.256 -1.584,7.992 0,2.808 0.50399,5.472 1.584,7.992 1.00799,2.448 2.51999,4.68 4.392,6.552 1.87199,1.872 4.10399,3.384 6.552,4.392 2.52,1.08 5.184,1.584 7.99199,1.584 3.16801,0 6.40801,-0.72 9.21601,-2.16 V 2.52 h 10.79999 z m -15.12,28.944 c -1.51199,0.864 -3.168,1.296 -4.896,1.296 -5.39999,0 -9.72,-4.32 -9.72,-9.72 0,-5.328 4.32001,-9.72 9.72,-9.72 1.872,0 3.67201,0.576 5.256,1.584 1.51201,1.008 2.736,2.376 3.528,4.032 0.57601,1.296 0.86401,2.664 0.86401,4.176 0,1.656 -0.432,3.384 -1.29601,4.824 -0.792,1.44 -2.01599,2.664 -3.456,3.528 z" stroke-width="0" stroke-linejoin="miter" stroke-miterlimit="2" fill="#218bde" stroke="#218bde" transform="translate(0 296.64171999999996) translate(500.58263495 69.04544) scale(0.91) translate(-500.69488 38.016)"></path>
        <path id="path408934" style="font-style:normal;font-weight:700;font-size:72px;line-height:1;font-family:'Brandmark1 Bold';font-variant-ligatures:normal;text-align:center;text-anchor:middle" d="m 577.412,-31.608 c -3.384,-3.456 -7.992,-5.328 -12.816,-5.328 -2.52,0 -5.04,0.504 -7.272,1.512 v -2.592 h -10.8 v 17.64 c -0.072,0.504 -0.072,1.08 -0.072,1.584 h 0.072 V 2.52 h 10.8 V -19.8 c 0.504,-3.6 3.6,-6.336 7.272,-6.336 4.032,0 7.344,3.312 7.344,7.344 V 2.52 h 10.8 v -21.312 c 0,-4.824 -1.872,-9.36 -5.328,-12.816 z" stroke-width="0" stroke-linejoin="miter" stroke-miterlimit="2" fill="#218bde" stroke="#218bde" transform="translate(0 296.64171999999996) translate(542.2216141499999 69.04544) scale(0.91) translate(-546.452 38.016)"></path>
        <path id="path408936" style="font-style:normal;font-weight:700;font-size:72px;line-height:1;font-family:'Brandmark1 Bold';font-variant-ligatures:normal;text-align:center;text-anchor:middle" d="m 626.16837,-38.016 h -10.79999 v 2.232 c -2.808,-1.44 -5.976,-2.232 -9.21601,-2.232 -2.80799,0 -5.47199,0.576 -7.99199,1.656 -2.44801,1.008 -4.68001,2.52 -6.552,4.392 -1.87201,1.872 -3.38401,4.032 -4.39201,6.48 -1.07999,2.592 -1.58399,5.256 -1.58399,7.992 0,2.808 0.504,5.472 1.58399,7.992 1.008,2.448 2.52,4.68 4.39201,6.552 1.87199,1.872 4.10399,3.384 6.552,4.392 2.52,1.08 5.184,1.584 7.99199,1.584 3.16801,0 6.40801,-0.72 9.21601,-2.16 V 2.52 h 10.79999 z m -15.12,28.944 c -1.51199,0.864 -3.168,1.296 -4.896,1.296 -5.39999,0 -9.72,-4.32 -9.72,-9.72 0,-5.328 4.32001,-9.72 9.72,-9.72 1.872,0 3.67201,0.576 5.256,1.584 1.51201,1.008 2.736,2.376 3.528,4.032 0.57601,1.296 0.86401,2.664 0.86401,4.176 0,1.656 -0.432,3.384 -1.29601,4.824 -0.792,1.44 -2.01599,2.664 -3.456,3.528 z" stroke-width="0" stroke-linejoin="miter" stroke-miterlimit="2" fill="#218bde" stroke="#218bde" transform="translate(0 296.64171999999996) translate(577.8757599499999 69.04544) scale(0.91) translate(-585.63238 38.016)"></path>
        <path id="path408938" style="font-style:normal;font-weight:700;font-size:72px;line-height:1;font-family:'Brandmark1 Bold';font-variant-ligatures:normal;text-align:center;text-anchor:middle" d="m 663.3575,-32.184 c -3.816,-3.816 -8.856,-5.904 -14.256,-5.904 -5.4,0 -10.44,2.088 -14.256,5.904 -3.816,3.816 -5.904,8.928 -5.904,14.256 0,5.4 2.088,10.512 5.904,14.328 3.816,3.816 8.856,5.904 14.256,5.904 3.168,0 6.264,-0.72 9.072,-2.16 -1.152,3.96 -4.752,6.84 -9.072,6.84 -2.448,0 -4.68,-0.864 -6.48,-2.52 l -7.416,7.776 c 3.744,3.6 8.712,5.616 13.896,5.616 5.4,0 10.44,-2.16 14.256,-5.976 3.816,-3.744 5.904,-8.856 5.904,-14.256 v -15.552 c 0,-5.328 -2.088,-10.44 -5.904,-14.256 z m -14.256,23.688 c -5.184,0 -9.36,-4.248 -9.36,-9.432 0,-5.112 4.176,-9.36 9.36,-9.36 5.184,0 9.432,4.176 9.432,9.36 -0.072,5.184 -4.248,9.432 -9.432,9.432 z" stroke-width="0" stroke-linejoin="miter" stroke-miterlimit="2" fill="#218bde" stroke="#218bde" transform="translate(0 296.64171999999996) translate(617.2870591499999 68.97991999999999) scale(0.91) translate(-628.9415 38.088)"></path>
        <path id="path408940" style="font-style:normal;font-weight:700;font-size:72px;line-height:1;font-family:'Brandmark1 Bold';font-variant-ligatures:normal;text-align:center;text-anchor:middle" d="m 691.62537,2.736 c 2.88,0 5.616,-0.576 8.20801,-1.656 2.448,-1.152 4.67999,-2.664 6.55199,-4.68 l -7.56,-7.2 c -1.87199,2.016 -4.464,3.096 -7.2,3.096 -3.52799,0 -6.55199,-1.8 -8.352,-4.608 h 28.65601 v -5.184 c 0,-5.472 -2.08801,-10.512 -5.976,-14.4 -3.816,-3.816 -8.92801,-5.904 -14.32801,-5.904 -5.4,0 -10.51199,2.088 -14.328,5.904 -3.816,3.888 -5.976,8.928 -5.976,14.4 0,5.4 2.16,10.512 5.976,14.328 3.81601,3.816 8.928,5.904 14.328,5.904 z m 8.35201,-25.488 h -16.70401 c 1.80001,-2.736 4.82401,-4.608 8.352,-4.608 3.528,0 6.624,1.872 8.35201,4.608 z" stroke-width="0" stroke-linejoin="miter" stroke-miterlimit="2" fill="#218bde" stroke="#218bde" transform="translate(0 296.64171999999996) translate(655.8527408499998 69.242) scale(0.91) translate(-671.32137 37.8)"></path>
        <path id="path408942" style="font-style:normal;font-weight:700;font-size:72px;line-height:1;font-family:'Brandmark1 Bold';font-variant-ligatures:normal;text-align:center;text-anchor:middle" d="M 714.35825,-15.192 V 2.52 h 10.8 v -17.712 c 0,-6.984 5.688,-12.6 12.6,-12.6 v -10.8 c -3.168,0 -6.192,0.576 -9.072,1.8 -2.808,1.224 -5.328,2.88 -7.416,5.04 -2.16,2.16 -3.888,4.68 -5.04,7.416 -1.224,2.88 -1.872,5.976 -1.872,9.144 z" stroke-width="0" stroke-linejoin="miter" stroke-miterlimit="2" fill="#218bde" stroke="#218bde" transform="translate(0 296.64171999999996) translate(695.0163016499998 68.52127999999999) scale(0.91) translate(-714.35825 38.592)"></path>
      </g>
      <image xlink:href="" id="icon" style="display: none;" x="0" y="0"></image>
    </g>
  </g>
</svg>