<svg width="571" height="179" viewBox="0 0 571 179" fill="none" xmlns="http://www.w3.org/2000/svg">
<mask id="mask0_1456_16" style="mask-type:alpha" maskUnits="userSpaceOnUse" x="0" y="0" width="571" height="179">
<path d="M89.5397 178.847C133.263 178.847 170.009 147.217 177.451 105.587L177.684 104.889L178.149 102.099C178.382 100.005 178.614 97.9122 178.614 95.8191C178.847 93.726 178.847 91.6328 178.847 89.3071V85.1208C178.614 80.702 178.149 76.5157 177.219 72.3295H86.5162V105.587H137.914C131.17 125.821 112.099 140.473 89.5397 140.473C61.1661 140.473 38.3741 117.681 38.3741 89.3071C38.3741 61.1661 61.1661 38.3742 89.5397 38.3742C102.098 38.3742 113.494 42.793 122.565 50.4678H170.009C155.59 20.4662 124.89 0 89.5397 0C40.0021 0 0 40.0021 0 89.3071C0 134.193 33.2576 171.637 76.2831 177.917C80.702 178.614 84.8883 178.847 89.5397 178.847Z" fill="#008033"/>
<path d="M327.763 4.18629C323.576 3.48857 319.39 3.02344 314.971 3.02344H231.711V175.823H270.085V118.378H314.971C348.229 118.378 375.207 93.9586 375.207 60.701C375.207 31.8622 354.741 9.53541 327.763 4.18629ZM270.085 85.1209V36.281H314.971C327.065 36.281 336.833 48.6073 336.833 60.701C336.833 70.9341 329.623 81.3997 320.088 84.1906C318.46 84.8883 316.599 85.1209 314.971 85.1209H270.085Z" fill="#FFCC01"/>
<path d="M570.807 104.424V3.02344H532.433V104.424C532.433 124.193 516.386 140.008 497.082 140.008C477.547 140.008 461.732 124.193 461.499 104.657V3.02344H423.125V104.424C423.125 145.124 456.15 178.382 497.082 178.382C503.594 178.382 510.106 177.451 515.921 175.823C519.874 174.893 523.828 173.265 527.317 171.87C534.759 168.381 541.503 163.962 547.085 158.613C549.876 156.288 551.969 153.729 554.062 151.171C556.155 148.613 558.249 146.054 559.877 143.031C565.458 134.193 568.714 124.193 570.342 113.494C570.575 110.704 570.807 107.68 570.807 104.424Z" fill="#0080FF"/>
</mask>
<g mask="url(#mask0_1456_16)">
<rect x="-41" y="-268" width="651" height="651" fill="url(#paint0_linear_1456_16)"/>
</g>
<defs>
<linearGradient id="paint0_linear_1456_16" x1="-41" y1="65.5" x2="610" y2="65.5" gradientUnits="userSpaceOnUse">
<stop stop-color="#008033"/>
<stop offset="0.495192" stop-color="#FFCC01"/>
<stop offset="1" stop-color="#0080FF"/>
</linearGradient>
</defs>
</svg>
